Coordinates
version=1
nRows=16
nColumns=18
inDegrees=yes

Units are S.I. units (second, meters, Newtons, ...)
If the header above contains a line with 'inDegrees', this indicates whether rotational values are in degrees (yes) or radians (no).

endheader
time	ground_thorax_rot_x	ground_thorax_rot_y	ground_thorax_rot_z	ground_thorax_tx	ground_thorax_ty	ground_thorax_tz	clav_prot	clav_elev	scapula_abduction	scapula_elevation	scapula_upward_rot	scapula_winging	plane_elv	shoulder_elv	axial_rot	elbow_flexion	pro_sup
      3.00000000	     -0.26003416	     -8.63094229	    -20.57499520	     -0.02200239	     -0.01583986	      0.04019138	    -22.07173363	    -15.48909435	    -16.83182421	    -10.60588056	      6.18590981	     34.49335658	     11.41970022	     40.74270372	    -16.55645834	      0.05002899	     63.92270238
      3.02000000	     -0.20480424	     -8.67410008	    -20.58394141	     -0.02269452	     -0.01581089	      0.04037304	    -22.08768517	    -15.59259283	    -16.76145030	    -10.70921477	      6.28650721	     34.52590073	     11.84731764	     40.86103774	    -16.44057054	      0.05002899	     63.92270238
      3.04000000	     -0.20829448	     -8.62968490	    -20.47419394	     -0.02350546	     -0.01584049	      0.04031440	    -22.01230743	    -15.57231871	    -16.66404430	    -10.68706259	      6.27525312	     34.49732718	     12.16182887	     40.92814622	    -16.23229530	      0.05002899	     63.92270238
      3.06000000	     -0.18131455	     -8.67012922	    -20.48523742	     -0.02411341	     -0.01590744	      0.04044746	    -22.03693325	    -15.63292524	    -16.63393029	    -10.75391927	      6.35568708	     34.51690881	     12.51676212	     40.99342583	    -16.12703249	      0.05002899	     63.92270238
      3.08000000	     -0.20002653	     -8.65140651	    -20.41852695	     -0.02482903	     -0.01602138	      0.04039238	    -21.96249539	    -15.59367621	    -16.54707087	    -10.71702645	      6.34139579	     34.48051770	     12.79141959	     41.04016446	    -15.91979340	      0.05002899	     63.92270238
      3.10000000	     -0.21084492	     -8.65760603	    -20.37513210	     -0.02548356	     -0.01614368	      0.04038202	    -21.89773134	    -15.55659844	    -16.47003411	    -10.68403622	      6.33390053	     34.44663283	     13.05143315	     41.08222863	    -15.72141724	      0.05002899	     63.92270238
      3.12000000	     -0.12406237	     -8.69533537	    -20.44079046	     -0.02588223	     -0.01616558	      0.04056448	    -22.00656775	    -15.63618562	    -16.52952451	    -10.78278427	      6.46566048	     34.48934636	     13.24343023	     41.09469976	    -15.69726843	      0.05002899	     63.92270238
      3.14000000	     -0.14948559	     -8.72087244	    -20.43693250	     -0.02641485	     -0.01638307	      0.04055281	    -21.94551414	    -15.57798462	    -16.46919502	    -10.73303862	      6.45280648	     34.44787927	     13.47059303	     41.11284015	    -15.50697432	      0.05002899	     63.92270238
      3.16000000	     -0.04761218	     -8.63158880	    -20.47073319	     -0.02674044	     -0.01644407	      0.04063467	    -22.22524050	    -15.59818489	    -16.71619423	    -10.83984199	      6.75079275	     34.48106284	     13.61660837	     40.87113097	    -15.89329718	      0.05002899	     63.92270238
      3.18000000	     -0.08161519	     -8.69498276	    -20.51434839	     -0.02711350	     -0.01672725	      0.04066958	    -22.16209086	    -15.52156214	    -16.66635853	    -10.77343045	      6.72615290	     34.43287149	     13.81897549	     40.87806216	    -15.69713977	      0.05002899	     63.92270238
      3.20000000	      0.04800394	     -8.75898778	    -20.48657463	     -0.02741274	     -0.01662168	      0.04072899	    -22.18110346	    -15.50163262	    -16.67436776	    -10.77320834	      6.77873413	     34.41939035	     13.70687022	     40.87937482	    -15.64359150	      0.05002899	     63.92270238
      3.22000000	     -0.00625198	     -8.85378389	    -20.59074364	     -0.02764679	     -0.01701776	      0.04078589	    -22.11729659	    -15.40433249	    -16.63665514	    -10.68913019	      6.74469434	     34.36367008	     13.90272241	     40.85976454	    -15.44196475	      0.05002899	     63.92270238
      3.24000000	      0.09842378	     -8.86906321	    -20.50459067	     -0.02784313	     -0.01670171	      0.04075025	    -22.16943415	    -15.44960465	    -16.65828794	    -10.74346921	      6.81520182	     34.38569124	     13.43330571	     40.69705816	    -15.54786686	      0.05002899	     63.92270238
      3.26000000	      0.03202203	     -9.00119533	    -20.66392544	     -0.02797066	     -0.01718382	      0.04085190	    -22.10691073	    -15.33068859	    -16.63467765	    -10.64175190	      6.77418344	     34.32206039	     13.62555058	     40.65931447	    -15.33674739	      0.05002899	     63.92270238
      3.28000000	      0.18621037	     -9.05703271	    -20.59912738	     -0.02802671	     -0.01687809	      0.04081686	    -22.15857851	    -15.32152631	    -16.69965243	    -10.64512338	      6.80252048	     34.32723831	     13.08114614	     40.54643211	    -15.38470315	      0.05002899	     63.92270238
      3.30000000	      0.19720752	     -9.20122892	    -20.65572831	     -0.02800316	     -0.01693333	      0.04095297	    -22.15107102	    -15.27590096	    -16.72013749	    -10.60451470	      6.77701029	     34.30944491	     12.82251077	     40.40395704	    -15.31006862	      0.05002899	     63.92270238
